<?xml version="1.0" standalone="no"?>
<!DOCTYPE svg PUBLIC "-//W3C//DTD SVG 20010904//EN"
 "http://www.w3.org/TR/2001/REC-SVG-20010904/DTD/svg10.dtd">
<svg version="1.0" xmlns="http://www.w3.org/2000/svg"
 width="1080.000000pt" height="1080.000000pt" viewBox="0 0 1080.000000 1080.000000"
 preserveAspectRatio="xMidYMid meet">
<metadata>
Created by potrace 1.11, written by Peter Selinger 2001-2013
</metadata>
<g transform="translate(0.000000,1080.000000) scale(0.100000,-0.100000)"
fill="#000000" stroke="none">
<path d="M3989 9491 c-19 -9 -43 -25 -55 -36 -42 -40 -44 -47 -179 -435 -20
-58 -40 -114 -45 -125 -10 -22 -55 -149 -95 -270 -15 -44 -36 -102 -47 -130
-11 -27 -21 -57 -23 -65 -2 -8 -18 -53 -35 -100 -17 -47 -42 -116 -55 -155
-13 -38 -49 -140 -80 -225 -31 -85 -58 -162 -60 -170 -2 -8 -22 -67 -45 -130
-23 -63 -67 -185 -97 -270 -30 -85 -82 -231 -115 -325 -33 -93 -86 -244 -118
-335 -178 -506 -302 -857 -310 -875 -5 -11 -18 -47 -29 -80 -23 -69 -270 -769
-305 -865 -78 -212 -106 -302 -106 -339 0 -103 81 -197 179 -208 49 -5 99 1
251 32 14 2 39 7 55 10 17 3 41 7 55 10 14 3 40 8 59 11 18 3 43 8 55 10 11 2
37 7 56 10 19 3 80 15 135 25 125 24 118 24 111 -8 -3 -16 -8 -44 -11 -63 -5
-31 -87 -457 -100 -520 -3 -14 -7 -36 -10 -50 -2 -14 -13 -74 -25 -135 -12
-60 -24 -119 -26 -130 -2 -11 -6 -32 -9 -47 -4 -15 -8 -39 -10 -55 -2 -15 -7
-39 -10 -53 -27 -133 -33 -163 -41 -214 -3 -22 -8 -44 -10 -48 -2 -4 -7 -26
-10 -50 -3 -24 -7 -52 -8 -63 -6 -38 24 -111 59 -148 44 -45 93 -67 149 -67
33 0 258 71 456 143 131 48 282 97 288 93 4 -2 7 -357 6 -788 0 -647 2 -790
14 -826 17 -51 67 -106 119 -128 51 -21 140 -14 191 16 20 13 62 37 92 53 30
17 75 43 99 59 25 15 50 28 57 28 7 0 14 4 16 8 2 5 39 29 83 54 44 24 139 79
212 121 72 42 148 86 168 97 20 11 105 60 188 109 84 48 242 140 352 203 110
63 304 175 430 248 127 73 319 184 427 246 108 63 212 123 230 134 18 11 56
31 83 46 28 15 52 29 55 33 3 3 14 11 25 17 26 14 101 56 145 81 19 11 133 77
253 146 120 70 237 137 260 150 23 13 98 57 167 97 69 40 145 84 170 98 25 14
78 45 118 69 41 24 76 43 78 43 2 0 21 11 42 24 20 13 56 35 78 48 379 212
549 317 580 354 63 76 56 210 -14 277 -26 24 -84 60 -424 254 l-146 84 29 47
c35 56 45 122 29 181 -12 46 -56 94 -180 201 -35 30 -85 73 -110 95 -26 22
-73 63 -105 90 -32 28 -77 66 -99 86 -23 20 -54 48 -71 62 l-30 25 27 22 c101
79 109 209 20 318 -25 31 -48 59 -51 62 -6 4 -57 65 -126 148 -11 14 -25 30
-30 36 -15 15 -229 265 -365 426 -40 47 -84 99 -99 115 -14 17 -48 57 -76 90
-27 33 -57 67 -65 75 -8 9 -35 40 -60 70 -25 29 -49 58 -55 64 -5 6 -42 49
-82 96 -39 47 -80 94 -90 105 -10 11 -40 47 -68 80 -27 33 -52 62 -55 65 -3 3
-55 64 -116 135 -60 72 -121 144 -135 160 -15 17 -69 79 -120 140 -52 60 -104
121 -115 135 -12 14 -68 79 -124 145 -56 66 -112 131 -124 145 -88 102 -153
178 -166 194 -8 10 -20 23 -25 30 -6 6 -48 56 -95 111 -47 55 -95 111 -107
125 -48 56 -134 156 -308 360 -86 102 -167 196 -179 210 -57 66 -216 253 -261
305 -149 176 -190 218 -232 237 -51 22 -123 22 -174 -1z"/>
</g>
</svg>
